<svg width="16" height="16" viewBox="0 0 16 16" fill="none" xmlns="http://www.w3.org/2000/svg">
<path d="M11.232 0.666748C12.3061 0.666748 13.0419 1.89269 12.3121 2.81584L10.1447 5.55412H13.3335C13.6064 5.5542 13.8517 5.72054 13.9527 5.97404C14.0537 6.22768 13.9895 6.51753 13.7912 6.70516L5.05229 14.974C5.04557 14.9804 5.03844 14.9868 5.03146 14.9929C3.94969 15.9342 2.29837 14.7727 2.88042 13.4324H2.87977L4.66688 8.97013H3.36609C2.36688 8.97013 1.62639 7.89723 2.18966 6.96167L5.57703 1.32495L5.58159 1.31714C5.70559 1.11684 5.87929 0.951873 6.0855 0.837972C6.29035 0.724837 6.5208 0.666502 6.75477 0.667399V0.666748H11.232ZM6.73003 2.00529C6.72416 2.00858 6.71927 2.01326 6.7157 2.01896L3.34135 7.63289C3.34277 7.63352 3.34447 7.63428 3.34656 7.63485C3.35017 7.63581 3.35667 7.6368 3.36609 7.6368H5.6519C5.87313 7.6368 6.07997 7.74657 6.20398 7.92977C6.32799 8.11302 6.35331 8.34611 6.27104 8.55151L4.1174 13.9278C4.1134 13.9378 4.10951 13.948 4.10503 13.9578C4.10189 13.9646 4.10005 13.9695 4.09917 13.9727C4.10116 13.9759 4.10537 13.9819 4.11414 13.9884C4.12067 13.9932 4.12714 13.9963 4.13237 13.9981C4.13509 13.9991 4.13704 13.9992 4.13823 13.9994C4.13899 13.9991 4.14061 13.999 4.14214 13.9981C4.14477 13.9965 4.14875 13.9932 4.15451 13.9884L11.6591 6.88745H8.76714C8.51162 6.88738 8.27887 6.74113 8.16753 6.51115C8.05624 6.28115 8.08592 6.0078 8.24435 5.80737L11.2548 2.00269H11.2535C11.2499 2.00169 11.2431 2.00008 11.232 2.00008H6.74956C6.74278 2.00007 6.73596 2.00201 6.73003 2.00529Z" fill="white" fill-opacity="0.6"/>
</svg>
