<svg width="24" height="24" viewBox="0 0 24 24" fill="none" xmlns="http://www.w3.org/2000/svg">
<path d="M17.4727 11.1111V10.2224C17.4727 8.5252 17.4706 7.32726 17.3486 6.42066C17.2296 5.53573 17.0085 5.04115 16.6504 4.68335C16.292 4.32522 15.797 4.10424 14.9121 3.98511C14.0057 3.86308 12.8083 3.86109 11.1113 3.86109C9.41412 3.86109 8.21618 3.8622 7.30957 3.98413C6.4246 4.10317 5.93007 4.32524 5.57227 4.68335C5.21425 5.04179 4.99313 5.53691 4.87402 6.42163C4.75203 7.32806 4.75 8.52553 4.75 10.2224V13.7781C4.75 15.4749 4.75116 16.6723 4.87305 17.5789C4.99208 18.4639 5.21414 18.9583 5.57227 19.3162C5.93072 19.6743 6.42565 19.8963 7.31055 20.0154C8.21697 20.1374 9.4145 20.1384 11.1113 20.1384C11.5253 20.1385 11.8611 20.4745 11.8613 20.8884C11.8613 21.3026 11.5254 21.6383 11.1113 21.6384C9.45659 21.6384 8.14006 21.6403 7.11035 21.5017C6.05906 21.3602 5.19504 21.0604 4.51172 20.3777C3.82807 19.6946 3.52813 18.8305 3.38672 17.7791C3.24822 16.7493 3.25 15.4327 3.25 13.7781V10.2224C3.25 8.56763 3.2491 7.25115 3.3877 6.22144C3.52921 5.17025 3.82819 4.30609 4.51074 3.6228C5.19372 2.93924 6.05816 2.63924 7.10938 2.4978C8.13921 2.35929 9.45654 2.36109 11.1113 2.36109C12.7661 2.36109 14.0826 2.36015 15.1123 2.49878C16.1635 2.64032 17.0277 2.93916 17.7109 3.62183C18.3945 4.30479 18.6935 5.16927 18.835 6.22046C18.9735 7.2503 18.9727 8.56762 18.9727 10.2224V11.1111C18.9727 11.5252 18.6367 11.8609 18.2227 11.8611C17.8084 11.8611 17.4727 11.5253 17.4727 11.1111Z" fill="white"/>
<path d="M15.9363 13.0798C16.9324 13.0798 17.8891 13.4714 18.5994 14.1697C19.3095 14.8679 19.7172 15.8175 19.7342 16.8132C19.7428 17.3172 19.6506 17.8178 19.4637 18.2859C19.371 18.5179 19.2555 18.7396 19.1199 18.948L20.5301 20.3582C20.823 20.651 20.823 21.1268 20.5301 21.4197C20.2372 21.7122 19.7623 21.7123 19.4695 21.4197L18.0701 20.0193C17.8614 20.161 17.6389 20.2826 17.4051 20.3806C16.9401 20.5756 16.4406 20.6755 15.9363 20.6755C15.4323 20.6755 14.9334 20.5754 14.4686 20.3806C14.0037 20.1857 13.5817 19.9002 13.2283 19.5408C12.8749 19.1812 12.596 18.7542 12.409 18.2859C12.2222 17.8178 12.1309 17.3172 12.1395 16.8132C12.1565 15.8173 12.5639 14.868 13.2742 14.1697C13.9845 13.4714 14.9403 13.0799 15.9363 13.0798ZM15.9363 14.5798C15.3337 14.5799 14.7548 14.8165 14.325 15.239C13.8954 15.6615 13.6488 16.2361 13.6385 16.8386C13.6333 17.1436 13.6894 17.4469 13.8026 17.7302C13.9157 18.0134 14.0839 18.2715 14.2977 18.489C14.5114 18.7064 14.7665 18.8789 15.0477 18.9968C15.329 19.1148 15.6313 19.1755 15.9363 19.1755C16.2414 19.1755 16.5437 19.1148 16.825 18.9968C17.1062 18.8789 17.3612 18.7064 17.575 18.489C17.7889 18.2715 17.958 18.0135 18.0711 17.7302C18.1842 17.4469 18.2394 17.1436 18.2342 16.8386C18.2239 16.2361 17.9774 15.6615 17.5477 15.239C17.1179 14.8165 16.539 14.5798 15.9363 14.5798Z" fill="white"/>
<path d="M11.1112 10.3612C11.5254 10.3613 11.8612 10.697 11.8612 11.1112C11.8611 11.5253 11.5253 11.8611 11.1112 11.8612H7.55554C7.14136 11.8612 6.8056 11.5254 6.80554 11.1112C6.80554 10.697 7.14133 10.3612 7.55554 10.3612H11.1112ZM14.6669 6.80554C15.081 6.80566 15.4169 7.1414 15.4169 7.55554C15.4169 7.96968 15.081 8.30542 14.6669 8.30554H7.55554C7.14133 8.30554 6.80554 7.96976 6.80554 7.55554C6.80554 7.14133 7.14133 6.80554 7.55554 6.80554H14.6669Z" fill="white"/>
</svg>
