<svg width="24" height="24" viewBox="0 0 24 24" fill="none" xmlns="http://www.w3.org/2000/svg">
<path d="M16.8625 6.19556C17.1229 5.93532 17.5446 5.93524 17.8049 6.19556C18.065 6.45589 18.0651 6.87768 17.8049 7.13794L12.9426 12.0002L17.8049 16.8625C18.0649 17.1229 18.0651 17.5447 17.8049 17.8049C17.5447 18.0651 17.1229 18.0649 16.8625 17.8049L12.0002 12.9426L7.13794 17.8049C6.87768 18.0651 6.45589 18.065 6.19556 17.8049C5.93524 17.5446 5.93532 17.1229 6.19556 16.8625L11.0569 12.0002L6.19556 7.13794C5.9352 6.87759 5.9352 6.45591 6.19556 6.19556C6.45591 5.9352 6.87759 5.9352 7.13794 6.19556L12.0002 11.0569L16.8625 6.19556Z" fill="#F14B1B"/>
</svg>
