<svg width="24" height="24" viewBox="0 0 24 24" fill="none" xmlns="http://www.w3.org/2000/svg">
<path d="M7 13V21C7 21.2833 6.904 21.521 6.712 21.713C6.52 21.905 6.28267 22.0007 6 22C5.71733 21.9993 5.48 21.9033 5.288 21.712C5.096 21.5207 5 21.2833 5 21V4C5 3.71667 5.096 3.47933 5.288 3.288C5.48 3.09667 5.71733 3.00067 6 3H19.525C19.7083 3 19.871 3.04167 20.013 3.125C20.155 3.20833 20.2673 3.31667 20.35 3.45C20.4327 3.58333 20.4867 3.72933 20.512 3.888C20.5373 4.04667 20.5167 4.209 20.45 4.375L19 8L20.45 11.625C20.5167 11.7917 20.5377 11.9543 20.513 12.113C20.4883 12.2717 20.434 12.4173 20.35 12.55C20.266 12.6827 20.1537 12.791 20.013 12.875C19.8723 12.959 19.7097 13.0007 19.525 13H7ZM7 11H18.05L17.15 8.75C17.05 8.51667 17 8.26667 17 8C17 7.73333 17.05 7.48333 17.15 7.25L18.05 5H7V11Z" fill="#695005"/>
</svg>
