<svg width="24" height="24" viewBox="0 0 24 24" fill="none" xmlns="http://www.w3.org/2000/svg">
<g clip-path="url(#clip0_1887_1282)">
<path fill-rule="evenodd" clip-rule="evenodd" d="M13.8135 1.13499C13.2426 0.881239 12.6248 0.750122 12 0.750122C11.3752 0.750122 10.7574 0.881239 10.1865 1.13499C6.45 2.79499 3.625 4.97249 2.163 6.23199C1.221 7.04349 0.714 8.19599 0.6515 9.38699C0.553442 11.2526 0.502926 13.1203 0.5 14.9885C0.5 16.7145 0.549 18.3785 0.603 19.6835C0.639864 20.6564 1.04443 21.5791 1.73504 22.2653C2.42566 22.9516 3.35089 23.3503 4.324 23.381C6.065 23.4405 8.644 23.4995 12 23.4995C15.356 23.4995 17.935 23.4405 19.676 23.381C20.6492 23.3503 21.5745 22.9515 22.2651 22.2651C22.9557 21.5788 23.3603 20.656 23.397 19.683C23.451 18.379 23.5 16.7145 23.5 14.988C23.5 12.7445 23.417 10.6955 23.3485 9.38699C23.286 8.19599 22.779 7.04299 21.837 6.23199C20.3745 4.97199 17.5495 2.79549 13.8135 1.13499ZM10.9985 2.96249C11.3137 2.82238 11.6548 2.74999 11.9998 2.74999C12.3447 2.74999 12.6858 2.82238 13.001 2.96249C16.5 4.51749 19.16 6.56499 20.532 7.74749C21.0225 8.16999 21.3145 8.79299 21.351 9.49149C21.4185 10.7785 21.5 12.7905 21.5 14.9885C21.5 16.6785 21.452 18.3145 21.399 19.6005C21.383 20.0696 21.1889 20.515 20.856 20.846C20.5232 21.177 20.0767 21.3687 19.6075 21.382C17.8885 21.441 15.3325 21.5 12 21.5C8.6675 21.5 6.1115 21.441 4.3925 21.382C3.92347 21.3685 3.47718 21.1769 3.14446 20.846C2.81174 20.5151 2.61758 20.0699 2.6015 19.601C2.53656 18.0643 2.50272 16.5265 2.5 14.9885C2.5 12.7905 2.5815 10.7785 2.649 9.49149C2.6855 8.79299 2.9775 8.16999 3.468 7.74749C4.8405 6.56499 7.4995 4.51749 10.9985 2.96249ZM8 17.2445C7.66848 17.2445 7.35054 17.3762 7.11612 17.6106C6.8817 17.845 6.75 18.163 6.75 18.4945C6.75 18.826 6.8817 19.144 7.11612 19.3784C7.35054 19.6128 7.66848 19.7445 8 19.7445H16C16.3315 19.7445 16.6495 19.6128 16.8839 19.3784C17.1183 19.144 17.25 18.826 17.25 18.4945C17.25 18.163 17.1183 17.845 16.8839 17.6106C16.6495 17.3762 16.3315 17.2445 16 17.2445H8Z" fill="white"/>
</g>
<defs>
<clipPath id="clip0_1887_1282">
<rect width="24" height="24" fill="white"/>
</clipPath>
</defs>
</svg>
