<svg width="24" height="24" viewBox="0 0 24 24" fill="none" xmlns="http://www.w3.org/2000/svg">
<path d="M13.8949 15.553C14.0133 15.7902 14.0326 16.0648 13.9485 16.3162C13.8645 16.5677 13.6841 16.7755 13.4469 16.894L12.4469 17.394C12.2945 17.4702 12.1251 17.5061 11.9549 17.4985C11.7847 17.4908 11.6193 17.4398 11.4743 17.3502C11.3294 17.2606 11.2097 17.1355 11.1267 16.9867C11.0436 16.8379 11 16.6704 10.9999 16.5V13C10.7748 12.9998 10.5564 12.9236 10.38 12.7838C10.2035 12.644 10.0794 12.4488 10.0277 12.2297C9.97601 12.0106 9.99973 11.7805 10.095 11.5766C10.1904 11.3727 10.3517 11.2069 10.5529 11.106L11.5529 10.606C11.7053 10.5298 11.8747 10.4939 12.0449 10.5015C12.2151 10.5092 12.3806 10.5602 12.5255 10.6498C12.6705 10.7394 12.7901 10.8645 12.8732 11.0133C12.9562 11.1621 12.9998 11.3296 12.9999 11.5V15C13.1857 14.9999 13.3679 15.0516 13.526 15.1493C13.6841 15.247 13.8118 15.3868 13.8949 15.553ZM11.9999 9.5C12.3977 9.5 12.7793 9.34196 13.0606 9.06066C13.3419 8.77936 13.4999 8.39782 13.4999 8C13.4999 7.60218 13.3419 7.22064 13.0606 6.93934C12.7793 6.65804 12.3977 6.5 11.9999 6.5C11.6021 6.5 11.2206 6.65804 10.9393 6.93934C10.6579 7.22064 10.4999 7.60218 10.4999 8C10.4999 8.39782 10.6579 8.77936 10.9393 9.06066C11.2206 9.34196 11.6021 9.5 11.9999 9.5Z" fill="white"/>
<path fill-rule="evenodd" clip-rule="evenodd" d="M12 22C17.523 22 22 17.523 22 12C22 6.477 17.523 2 12 2C6.477 2 2 6.477 2 12C2 17.523 6.477 22 12 22ZM12 20C14.1217 20 16.1566 19.1571 17.6569 17.6569C19.1571 16.1566 20 14.1217 20 12C20 9.87827 19.1571 7.84344 17.6569 6.34315C16.1566 4.84285 14.1217 4 12 4C9.87827 4 7.84344 4.84285 6.34315 6.34315C4.84285 7.84344 4 9.87827 4 12C4 14.1217 4.84285 16.1566 6.34315 17.6569C7.84344 19.1571 9.87827 20 12 20Z" fill="white"/>
</svg>
