<svg width="24" height="24" viewBox="0 0 24 24" fill="none" xmlns="http://www.w3.org/2000/svg">
<g opacity="0.5">
<path d="M12.75 10C12.75 9.80109 12.671 9.61032 12.5303 9.46967C12.3897 9.32902 12.1989 9.25 12 9.25C11.8011 9.25 11.6103 9.32902 11.4697 9.46967C11.329 9.61032 11.25 9.80109 11.25 10V10.701L10.643 10.351C10.4714 10.2596 10.271 10.2384 10.0841 10.2919C9.89718 10.3454 9.73835 10.4694 9.64108 10.6378C9.54381 10.8061 9.51571 11.0056 9.56271 11.1943C9.6097 11.3829 9.72812 11.546 9.89299 11.649L10.5 11.999L9.89299 12.35C9.7206 12.4495 9.59478 12.6133 9.54321 12.8055C9.49163 12.9978 9.51853 13.2026 9.61799 13.375C9.71745 13.5474 9.88131 13.6732 10.0735 13.7248C10.2658 13.7764 10.4706 13.7495 10.643 13.65L11.25 13.299V14C11.25 14.1989 11.329 14.3897 11.4697 14.5303C11.6103 14.671 11.8011 14.75 12 14.75C12.1989 14.75 12.3897 14.671 12.5303 14.5303C12.671 14.3897 12.75 14.1989 12.75 14V13.3L13.357 13.65C13.5294 13.7495 13.7342 13.7764 13.9264 13.7248C14.1187 13.6732 14.2825 13.5474 14.382 13.375C14.4814 13.2026 14.5083 12.9978 14.4568 12.8055C14.4052 12.6133 14.2794 12.4495 14.107 12.35L13.5 12L14.107 11.65C14.2794 11.5505 14.4052 11.3867 14.4568 11.1945C14.5083 11.0022 14.4814 10.7974 14.382 10.625C14.2825 10.4526 14.1187 10.3268 13.9264 10.2752C13.7342 10.2236 13.5294 10.2505 13.357 10.35L12.75 10.7V10ZM6.73299 9.25C6.9319 9.25 7.12267 9.32902 7.26332 9.46967C7.40397 9.61032 7.48299 9.80109 7.48299 10V10.7L8.08899 10.35C8.26138 10.2505 8.46622 10.2236 8.65844 10.2752C8.85067 10.3268 9.01453 10.4526 9.11399 10.625C9.21345 10.7974 9.24035 11.0022 9.18877 11.1945C9.1372 11.3867 9.01138 11.5505 8.83899 11.65L8.23199 12L8.83899 12.35C8.92435 12.3992 8.99917 12.4648 9.05919 12.543C9.1192 12.6211 9.16324 12.7104 9.18877 12.8055C9.21431 12.9007 9.22085 13 9.20802 13.0977C9.19519 13.1954 9.16324 13.2896 9.11399 13.375C9.06474 13.4604 8.99917 13.5352 8.92101 13.5952C8.84284 13.6552 8.75362 13.6992 8.65844 13.7248C8.56326 13.7503 8.46399 13.7569 8.36628 13.744C8.26857 13.7312 8.17435 13.6992 8.08899 13.65L7.48299 13.3V14C7.48299 14.1989 7.40397 14.3897 7.26332 14.5303C7.12267 14.671 6.9319 14.75 6.73299 14.75C6.53408 14.75 6.34331 14.671 6.20266 14.5303C6.06201 14.3897 5.98299 14.1989 5.98299 14V13.299L5.37499 13.649C5.20339 13.7404 5.003 13.7616 4.81609 13.7081C4.62918 13.6546 4.47035 13.5306 4.37308 13.3622C4.27581 13.1939 4.24771 12.9944 4.29471 12.8057C4.3417 12.6171 4.46012 12.454 4.62499 12.351L5.23199 12L4.62499 11.65C4.53963 11.6008 4.46481 11.5352 4.40479 11.457C4.34477 11.3789 4.30074 11.2896 4.27521 11.1945C4.24967 11.0993 4.24313 11 4.25596 10.9023C4.26879 10.8046 4.30074 10.7104 4.34999 10.625C4.39924 10.5396 4.46481 10.4648 4.54297 10.4048C4.62114 10.3448 4.71036 10.3008 4.80554 10.2752C4.90072 10.2497 4.99999 10.2431 5.0977 10.256C5.19541 10.2688 5.28963 10.3008 5.37499 10.35L5.98299 10.701V10C5.98299 9.80109 6.06201 9.61032 6.20266 9.46967C6.34331 9.32902 6.53408 9.25 6.73299 9.25ZM18.018 10C18.018 9.80109 17.939 9.61032 17.7983 9.46967C17.6577 9.32902 17.4669 9.25 17.268 9.25C17.0691 9.25 16.8783 9.32902 16.7377 9.46967C16.597 9.61032 16.518 9.80109 16.518 10V10.701L15.911 10.351C15.7394 10.2596 15.539 10.2384 15.3521 10.2919C15.1652 10.3454 15.0063 10.4694 14.9091 10.6378C14.8118 10.8061 14.7837 11.0056 14.8307 11.1943C14.8777 11.3829 14.9961 11.546 15.161 11.649L15.768 11.999L15.16 12.35C14.9876 12.4495 14.8618 12.6133 14.8102 12.8055C14.7586 12.9978 14.7855 13.2026 14.885 13.375C14.9844 13.5474 15.1483 13.6732 15.3405 13.7248C15.5328 13.7764 15.7376 13.7495 15.91 13.65L16.518 13.299V14C16.518 14.1989 16.597 14.3897 16.7377 14.5303C16.8783 14.671 17.0691 14.75 17.268 14.75C17.4669 14.75 17.6577 14.671 17.7983 14.5303C17.939 14.3897 18.018 14.1989 18.018 14V13.3L18.625 13.65C18.7974 13.7495 19.0022 13.7764 19.1944 13.7248C19.3867 13.6732 19.5505 13.5474 19.65 13.375C19.7494 13.2026 19.7763 12.9978 19.7248 12.8055C19.6732 12.6133 19.5474 12.4495 19.375 12.35L18.768 12L19.375 11.65C19.5474 11.5505 19.6732 11.3867 19.7248 11.1945C19.7763 11.0022 19.7494 10.7974 19.65 10.625C19.5505 10.4526 19.3867 10.3268 19.1944 10.2752C19.0022 10.2236 18.7974 10.2505 18.625 10.35L18.018 10.7V10Z" fill="black"/>
<path fill-rule="evenodd" clip-rule="evenodd" d="M9.944 3.25C8.106 3.25 6.65 3.25 5.511 3.403C4.339 3.561 3.39 3.893 2.641 4.641C1.893 5.39 1.561 6.339 1.403 7.511C1.25 8.651 1.25 10.106 1.25 11.944V12.056C1.25 13.894 1.25 15.35 1.403 16.489C1.561 17.661 1.893 18.61 2.641 19.359C3.39 20.107 4.339 20.439 5.511 20.597C6.651 20.75 8.106 20.75 9.944 20.75H14.056C15.894 20.75 17.35 20.75 18.489 20.597C19.661 20.439 20.61 20.107 21.359 19.359C22.107 18.61 22.439 17.661 22.597 16.489C22.75 15.349 22.75 13.894 22.75 12.056V11.944C22.75 10.106 22.75 8.65 22.597 7.511C22.439 6.339 22.107 5.39 21.359 4.641C20.61 3.893 19.661 3.561 18.489 3.403C17.349 3.25 15.894 3.25 14.056 3.25H9.944ZM3.702 5.702C4.125 5.279 4.705 5.025 5.711 4.89C6.739 4.752 8.093 4.75 10 4.75H14C15.907 4.75 17.262 4.752 18.29 4.89C19.295 5.025 19.875 5.279 20.298 5.702C20.721 6.125 20.975 6.705 21.11 7.711C21.248 8.739 21.25 10.093 21.25 12C21.25 13.907 21.248 15.262 21.11 16.29C20.975 17.295 20.721 17.875 20.298 18.298C19.875 18.721 19.295 18.975 18.289 19.11C17.262 19.248 15.907 19.25 14 19.25H10C8.093 19.25 6.739 19.248 5.71 19.11C4.705 18.975 4.125 18.721 3.702 18.298C3.279 17.875 3.025 17.295 2.89 16.289C2.752 15.261 2.75 13.907 2.75 12C2.75 10.093 2.752 8.739 2.89 7.71C3.025 6.705 3.279 6.125 3.702 5.702Z" fill="black"/>
</g>
</svg>
