<svg width="24" height="24" viewBox="0 0 24 24" fill="none" xmlns="http://www.w3.org/2000/svg">
<path d="M17.9091 12V20.1818H19.2728C19.3933 20.1818 19.5089 20.1339 19.5942 20.0487C19.6794 19.9634 19.7273 19.8478 19.7273 19.7273V12H17.9091ZM16.091 4.27273C16.091 4.15218 16.043 4.03659 15.9578 3.95135C15.8725 3.86611 15.757 3.81818 15.6364 3.81818H4.72732C4.60676 3.81818 4.49118 3.86611 4.40594 3.95135C4.3207 4.03659 4.27277 4.15217 4.27277 4.27273V19.7273C4.27277 19.8478 4.3207 19.9634 4.40594 20.0487C4.49118 20.1339 4.60677 20.1818 4.72732 20.1818H16.091V4.27273ZM17.9091 10.1818H19.7273C20.2095 10.1818 20.6719 10.3735 21.0128 10.7145C21.3538 11.0555 21.5455 11.5178 21.5455 12V19.7273C21.5455 20.33 21.3059 20.9079 20.8797 21.3342C20.4534 21.7604 19.8755 22 19.2728 22H4.72732C4.12455 22 3.54665 21.7604 3.12043 21.3342C2.69421 20.9079 2.45459 20.33 2.45459 19.7273V4.27273C2.45459 3.66996 2.69421 3.09206 3.12043 2.66584C3.54665 2.23962 4.12455 2 4.72732 2H15.6364C16.2392 2 16.8171 2.23962 17.2433 2.66584C17.6695 3.09206 17.9091 3.66996 17.9091 4.27273V10.1818Z" fill="black"/>
<path d="M11.5454 8.81817C12.0475 8.81817 12.4545 9.22518 12.4545 9.72726C12.4545 10.2293 12.0475 10.6364 11.5454 10.6364H6.09085C5.58878 10.6364 5.18176 10.2293 5.18176 9.72726C5.18176 9.22518 5.58878 8.81817 6.09085 8.81817H11.5454ZM9.72722 5.63635C10.2293 5.63635 10.6363 6.04337 10.6363 6.54544C10.6363 7.04752 10.2293 7.45453 9.72722 7.45453H6.09085C5.58878 7.45453 5.18176 7.04752 5.18176 6.54544C5.18176 6.04337 5.58878 5.63635 6.09085 5.63635H9.72722Z" fill="black"/>
</svg>
