<svg width="24" height="24" viewBox="0 0 24 24" fill="none" xmlns="http://www.w3.org/2000/svg">
<path d="M12 1.875C13.0355 1.875 13.875 2.71447 13.875 3.75C13.875 4.78553 13.0355 5.625 12 5.625C10.9645 5.625 10.125 4.78553 10.125 3.75C10.125 2.71447 10.9645 1.875 12 1.875Z" fill="black"/>
<path d="M12 10.125C13.0355 10.125 13.875 10.9645 13.875 12C13.875 13.0355 13.0355 13.875 12 13.875C10.9645 13.875 10.125 13.0355 10.125 12C10.125 10.9645 10.9645 10.125 12 10.125Z" fill="black"/>
<path d="M12 18.375C13.0355 18.375 13.875 19.2145 13.875 20.25C13.875 21.2855 13.0355 22.125 12 22.125C10.9645 22.125 10.125 21.2855 10.125 20.25C10.125 19.2145 10.9645 18.375 12 18.375Z" fill="black"/>
</svg>
