<svg width="24" height="24" viewBox="0 0 24 24" fill="none" xmlns="http://www.w3.org/2000/svg">
<path d="M6 11.657C6 10.839 6 10.431 6.152 10.063C6.304 9.696 6.594 9.406 7.172 8.828L7.828 8.172C8.406 7.594 8.696 7.304 9.063 7.152C9.43 7 9.84 7 10.657 7H13.343C14.161 7 14.569 7 14.937 7.152C15.305 7.304 15.594 7.594 16.172 8.172L16.828 8.828C17.407 9.406 17.695 9.696 17.848 10.063C18 10.431 18 10.839 18 11.657V16C18 17.886 18 18.828 17.414 19.414C16.828 20 15.886 20 14 20H10C8.114 20 7.172 20 6.586 19.414C6 18.828 6 17.886 6 16V11.657Z" stroke="black" stroke-width="2"/>
<path d="M8.99997 7.00001L6.13897 5.09201C6.09783 5.06449 6.04946 5.0498 5.99997 5.0498C5.95048 5.0498 5.9021 5.06449 5.86097 5.09201L3.25397 6.83101C3.22316 6.85153 3.1973 6.87864 3.17825 6.91037C3.15919 6.9421 3.14742 6.97767 3.14379 7.01451C3.14015 7.05134 3.14474 7.08853 3.15722 7.12337C3.16971 7.15822 3.18977 7.18986 3.21597 7.21601L5.79297 9.79301C5.85893 9.85844 5.9112 9.93635 5.94674 10.0222C5.98228 10.108 6.00037 10.2001 5.99997 10.293C5.99997 10.683 6.31697 11 6.70697 11H17.293C17.683 11 18 10.683 18 10.293C17.9996 10.2001 18.0177 10.108 18.0532 10.0222C18.0887 9.93635 18.141 9.85844 18.207 9.79301L20.784 7.21601C20.8102 7.18986 20.8302 7.15822 20.8427 7.12337C20.8552 7.08853 20.8598 7.05134 20.8562 7.01451C20.8525 6.97767 20.8407 6.9421 20.8217 6.91037C20.8026 6.87864 20.7768 6.85153 20.746 6.83101L18.14 5.09201C18.0988 5.06449 18.0505 5.0498 18.001 5.0498C17.9515 5.0498 17.9031 5.06449 17.862 5.09201L15 7.00001" stroke="black" stroke-width="2" stroke-linecap="round"/>
</svg>
