<svg width="66" height="66" viewBox="0 0 66 66" fill="none" xmlns="http://www.w3.org/2000/svg">
<path d="M33 0L56.3345 9.66548L66 33L56.3345 56.3345L33 66L9.66548 56.3345L0 33L9.66548 9.66548L33 0Z" fill="#FFCEDC"/>
<path d="M33 5.25L39.9027 16.3355L52.6222 13.3778L49.6645 26.0973L60.75 33L49.6645 39.9027L52.6222 52.6222L39.9027 49.6645L33 60.75L26.0973 49.6645L13.3778 52.6222L16.3355 39.9027L5.25 33L16.3355 26.0973L13.3778 13.3778L26.0973 16.3355L33 5.25Z" fill="#0F0F0D"/>
<path d="M25.9944 25.9959C22.3332 29.6571 22.4519 35.7117 26.2595 39.5194L39.5178 26.2611C35.7102 22.4535 29.6555 22.3348 25.9944 25.9959Z" fill="#D9D8D6"/>
<path d="M39.2537 39.2542C42.9149 35.593 42.7961 29.5384 38.9885 25.7308L25.7303 38.989C29.5379 42.7966 35.5925 42.9154 39.2537 39.2542Z" fill="#D7882A"/>
</svg>
